<svg xmlns="http://www.w3.org/2000/svg" width="96" height="96" viewBox="0 0 96 96" fill="none" role="img" aria-label="Seren">
  <defs>
    <linearGradient id="g" x1="16" y1="12" x2="84" y2="92" gradientUnits="userSpaceOnUse">
      <stop offset="0" stop-color="#3d6374"/>
      <stop offset="1" stop-color="#305767"/>
    </linearGradient>
    <filter id="s" x="-20%" y="-20%" width="140%" height="140%" color-interpolation-filters="sRGB">
      <feDropShadow dx="0" dy="10" stdDeviation="10" flood-color="#2f3330" flood-opacity="0.18"/>
    </filter>
  </defs>
  <circle cx="48" cy="48" r="34" fill="url(#g)" filter="url(#s)"/>
  <path
    d="M61.8 34.8c-2.7-3.1-7.2-5.2-13.2-5.2-8.4 0-14 4.2-14 10.6 0 5.3 3.9 7.8 11.1 9.1l2.7.5c4.2.8 6.1 1.9 6.1 3.9 0 2.4-2.6 3.9-6.6 3.9-4.2 0-7.3-1.4-9.4-3.7l-5.5 5.1c3.6 4.1 8.7 6 14.9 6 9.2 0 15.5-4.4 15.5-11.2 0-5.7-4.1-8.3-11.7-9.7l-2.7-.5c-3.7-.7-5.5-1.6-5.5-3.5 0-2.2 2.2-3.6 5.7-3.6 3.4 0 6.2 1.2 7.8 3l4.8-4.7Z"
    fill="#f0f9ff"
    opacity="0.98"
  />
</svg>
